<?xml version="1.0" encoding="utf-8"?>
<!-- Generator: Adobe Illustrator 26.5.0, SVG Export Plug-In . SVG Version: 6.00 Build 0)  -->
<svg version="1.1" xmlns="http://www.w3.org/2000/svg" xmlns:xlink="http://www.w3.org/1999/xlink" x="0px" y="0px"
	 viewBox="0 0 744.2 745.3" style="enable-background:new 0 0 744.2 745.3;" xml:space="preserve">
<style type="text/css">
	.st0{fill:#E4A330;}
	.st1{fill:#E1972F;}
	.st2{fill:#C72B2C;}
	.st3{fill:#7C4226;}
	.st4{fill:#A35F30;}
	.st5{fill:#4D713D;}
	.st6{fill:#FFFFFF;}
	.st7{fill:#AD262B;}
	.st8{fill:#844D29;}
	.st9{fill:#EEC131;}
	.st10{fill:#EBBA63;}
</style>
<g id="BG">
</g>
<g id="Object">
	<g>
		<g>
			<g>
				<path class="st0" d="M583.3,626H150.1c-26.9,0-48.9-22-48.9-48.9v-40.1c0-4.8,3.9-8.7,8.7-8.7h513.7c4.8,0,8.7,3.9,8.7,8.7V577
					C632.2,604,610.2,626,583.3,626z"/>
				<path class="st1" d="M632.2,577v-40.1c0-4.8-3.9-8.7-8.7-8.7h-27.3c-62.7,49-173.7,78.2-271.6,97.7h258.6
					C610.2,626,632.2,604,632.2,577z"/>
			</g>
			<path class="st2" d="M608,416.1H125.3c-5.8,0-10.6,4.7-10.6,10.6V444c0,5.8,4.7,10.6,10.6,10.6H608c5.8,0,10.6-4.7,10.6-10.6
				v-17.3C618.6,420.9,613.8,416.1,608,416.1z"/>
			<path class="st3" d="M539.8,528.2h46.6c17.1,0,31.1-14,31.1-31.1v-11.6c0-11-5.8-20.7-14.5-26.2
				C593.3,491.3,562.1,514.9,539.8,528.2z"/>
			<path class="st4" d="M608.7,417.4H129.5c-9.3-6.7-14.8-12.3-14.8-19v-50.5c0-6.8,5.5-12.3,12.3-12.3h479.2
				c6.8,0,12.3,5.5,12.3,12.3v50.5C618.6,405.1,613,410.7,608.7,417.4z"/>
			<path class="st5" d="M639.6,363.1c-0.1-0.1-21.6-42.8-21.6-42.8H381h-28.7h-237c0,0-21.5,42.7-21.6,42.8
				c-11.1,22,25,27.1,36.6,20c4.7-2.9,8.3-7.6,12.9-10.6c14.9-10,31.5-4.1,44.2,7.2c0,0,41.7,44.6,80.4,3.5
				c12.9-13.7,28.7-21.1,46.1-11.8c15.8,8.4,27.8,25,44.6,31.2c11.6,4.3,24.4,0.6,34-7.5c6.5-5.4,9.9-13.8,16.9-18.3
				c18.3-11.8,40.8-9.7,56,6.4c38.7,41.1,80.4-3.5,80.4-3.5c12.7-11.3,29.3-17.2,44.2-7.2c4.6,3.1,8.2,7.7,12.9,10.6
				C614.5,390.2,650.6,385,639.6,363.1z"/>
			<path class="st0" d="M105.5,327.7L105.5,327.7c0-98.1,112.7-208.3,256.1-208.3h0C505,119.4,627,229.6,627,327.7v0H105.5z"/>
			<path class="st1" d="M520.3,169.9c-31.1,82.4-102.7,130.6-164,157.8h270.4C625.5,264.6,573.6,198.9,520.3,169.9z"/>
			<g>
				<path class="st6" d="M268.7,191.4c-5.2,6.2-11.7,9.3-14.5,7c-2.8-2.4-0.9-9.3,4.4-15.5c5.2-6.2,11.7-9.3,14.5-7
					C275.9,178.3,274,185.2,268.7,191.4z"/>
				<path class="st6" d="M456.8,192.9c-7,4.1-14.2,4.8-16,1.6c-1.8-3.2,2.4-9,9.4-13.1c7-4.1,14.2-4.8,16-1.6
					C468,183,463.8,188.9,456.8,192.9z"/>
				
					<ellipse transform="matrix(0.2083 -0.9781 0.9781 0.2083 97.4703 500.5696)" class="st6" cx="357.9" cy="190.1" rx="14.7" ry="6.6"/>
				<path class="st6" d="M320.7,161.7c5.4,6.1,7.5,13,4.7,15.4c-2.8,2.4-9.3-0.5-14.7-6.6c-5.4-6.1-7.5-13-4.7-15.4
					C308.8,152.7,315.4,155.7,320.7,161.7z"/>
				<path class="st6" d="M412.1,163.6c7.5,3,12.5,8.2,11.2,11.6c-1.4,3.4-8.6,3.8-16.1,0.8c-7.5-3-12.5-8.2-11.2-11.6
					C397.4,160.9,404.6,160.6,412.1,163.6z"/>
			</g>
			<path class="st7" d="M207,419.6l132,37.5h81.8C420.8,457.1,341.3,421,207,419.6z"/>
			<path class="st8" d="M604.9,528.2H128.4c-9.6,0-17.4-7.8-17.4-17.4v-38.9c0-9.6,7.8-17.4,17.4-17.4h476.5
				c9.6,0,17.4,7.8,17.4,17.4v38.9C622.3,520.4,614.5,528.2,604.9,528.2z"/>
			<path class="st3" d="M329.3,454.5c0,0,126.3,36.7,164.2,65.1l68.7-64.1L329.3,454.5z"/>
			<path class="st9" d="M491.5,499.1l78.6-81.5l-382.3-0.2C187.7,417.4,361.8,429.4,491.5,499.1z"/>
			<path class="st10" d="M120.3,312.5c0,0,31.6-139.4,188-170.4C308.3,142.1,190.9,207.9,120.3,312.5z"/>
		</g>
		<g>
			<path class="st6" d="M160.2,481.3c-0.8-2.8-0.6-5,0.6-6.8c1.2-1.7,2.7-2.8,4.7-3.3c1.9-0.5,3.8-0.2,5.7,0.8c1.9,1,3,2.7,3.5,5.1
				c2.4,8.4,6.6,14.5,12.6,18.3c6,3.8,13,5.7,21,5.7c10.4,0,19.5-2.8,27.4-8.5c7.9-5.7,15.1-13.2,21.6-22.7
				c6.5-9.4,12.4-20.2,17.7-32.4c5.3-12.2,10.5-24.8,15.8-37.8c4.2-10.6,8.6-21.4,13.2-32.4c4.6-11,9.7-21.8,15.3-32.6
				c5.6-10.7,11.8-20.9,18.8-30.8c6.9-9.8,14.6-18.7,23.2-26.7c-8.2-2.4-17.5-3.6-27.9-3.6c-13.4,0-27.4,1.8-42,5.4
				c-14.6,3.6-28,8.9-40.3,15.8c-12.3,6.9-22.5,15.4-30.5,25.4c-8,10-12,21.4-12,34.2c0,5.8,1.1,12.2,3.3,19.2
				c0.6,2,0.3,3.8-0.8,5.4c-1.1,1.6-2.5,2.7-4.2,3.3c-1.7,0.6-3.5,0.7-5.4,0.1c-1.9-0.5-3.3-1.8-4.1-4.1c-2.6-7.8-3.9-15.8-3.9-24
				c0-15.2,4.4-28.7,13.3-40.5c8.9-11.8,20.2-21.8,34-30c13.8-8.2,28.9-14.4,45.3-18.8c16.4-4.3,32.1-6.4,47.1-6.4
				c8.6,0,16.7,0.7,24.2,2.1c7.5,1.4,14.2,3.6,20.2,6.6c1.6,0.6,2.8,1.8,3.6,3.6c0.8,1.8,0.9,3.8,0.3,6c-4.2,9.2-8.1,19.1-11.7,29.7
				c-3.6,10.6-6.7,21.6-9.3,33c-2.6,11.4-4.6,23-6,34.8c-1.4,11.8-2.1,23.4-2.1,34.8c0,8.2,0.3,16.2,1,23.8
				c0.7,7.7,1.8,15.3,3.5,22.6c6-7.8,12-16.4,18.1-25.8c6.1-9.4,12.3-19.1,18.8-29.1c6.2-9.8,12.9-20.2,20.1-31.2
				c7.2-11,15-21.7,23.4-32.1c8.4-10.4,17.4-20.2,27-29.5c9.6-9.3,20-17.2,31.2-23.9c2-1.4,4-2.1,6-2.1c2,0,3.6,0.5,5,1.5
				c1.3,1,2.1,2.5,2.4,4.5c0.3,2-0.3,4.4-1.7,7.2c-10.4,20.2-19.6,39-27.6,56.4c-8,17.4-14.8,33.1-20.2,47.2
				c-5.5,14.1-9.7,26.5-12.6,37c-2.9,10.6-4.3,19.2-4.3,25.8c0,13.8,3.4,20.7,10.2,20.7c5.8,0,12.8-3.2,21-9.5
				c8.2-6.3,17.4-16.4,27.6-30.4c2.2-3,4.3-4.7,6.5-5.1c2.1-0.4,3.8,0,5.1,1.2c1.3,1.2,2,3,2,5.4s-1,4.9-3,7.5
				c-11.6,16.2-22.3,27.9-32.1,35.1c-9.8,7.2-18.8,10.8-27,10.8c-7.6,0-13.7-3-18.3-8.9c-4.6-5.9-6.9-14.8-6.9-26.8
				c0-6.8,1.2-15.3,3.8-25.6c2.5-10.3,6.1-21.9,10.8-34.9c4.7-13,10.5-27.2,17.4-42.6c6.9-15.4,14.8-31.6,23.8-48.6
				c-6.4,5.4-13,12.1-19.8,20.1c-6.8,8-13.6,16.5-20.2,25.5c-6.7,9-13.2,18.1-19.5,27.5c-6.3,9.3-12.1,18.1-17.2,26.2
				c-4.4,7-8.9,14-13.4,21c-4.5,7-9.1,13.8-13.8,20.2c-4.7,6.5-9.4,12.7-14.1,18.5c-4.7,5.8-9.5,10.9-14.2,15.3
				c-1.8,1.6-3.6,2.2-5.4,1.8s-3.3-1.3-4.5-2.7c-1.2-1.4-2-3-2.2-4.9c-0.3-1.9,0.3-3.5,2-5c0.6-0.6,1.2-1.2,2-1.8
				c0.7-0.6,1.3-1.3,2-2.1c-2.6-9.4-4.5-19.1-5.6-29.1c-1.1-10-1.6-20.4-1.6-31.2c0-17.6,1.4-35,4.3-52.4
				c2.9-17.3,6.8-33.8,11.5-49.4c-5.2,6.8-10,14.2-14.5,22.2c-4.5,8-8.8,16.2-12.8,24.6c-4,8.4-7.8,16.9-11.4,25.5
				c-3.6,8.6-7,17-10.2,25.2c-5.8,14.6-11.5,28.6-17.2,42c-5.7,13.4-12.3,25.2-19.7,35.4c-7.4,10.2-15.9,18.3-25.3,24.5
				c-9.5,6.1-20.9,9.1-34,9.1c-11.4,0-21.4-2.8-30-8.4C169.6,502.1,163.6,493.3,160.2,481.3z"/>
		</g>
	</g>
</g>
</svg>
