<?xml version="1.0" encoding="utf-8"?>
<!-- Generator: Adobe Illustrator 26.5.0, SVG Export Plug-In . SVG Version: 6.00 Build 0)  -->
<svg version="1.1" id="Layer_1" xmlns="http://www.w3.org/2000/svg" xmlns:xlink="http://www.w3.org/1999/xlink" x="0px" y="0px"
	 viewBox="0 0 100 100" style="enable-background:new 0 0 100 100;" xml:space="preserve">
<style type="text/css">
	.st0{fill:#EF4538;}
	.st1{fill:#DF3F31;}
	.st2{fill:#9F2D24;}
	.st3{fill:#FFFFFF;}
	.st4{fill:#EF4639;}
</style>
<g>
	<circle class="st0" cx="50" cy="50" r="50"/>
	<path class="st1" d="M49.4,0c-0.5,0.3-0.9,0.3-1.4,0C48.5,0,48.9,0,49.4,0z"/>
	<path class="st1" d="M51.9,0c-0.5,0.3-0.9,0.3-1.4,0C51,0,51.5,0,51.9,0z"/>
	<path class="st2" d="M0,47.1c0.3,0.2,0.2,0.4,0,0.6C0,47.5,0,47.3,0,47.1z"/>
	<path class="st2" d="M0,52.3c0.2,0.2,0.3,0.4,0,0.6C0,52.7,0,52.5,0,52.3z"/>
	<path class="st3" d="M49.9,29.7c7.5,0,14.9,0,22.4,0c1.9,0,2.6,0.7,2.5,2.5c-0.5,7.5-1,15-1.5,22.5c-0.4,6.5-0.8,13-1.2,19.5
		c-0.1,1.9-0.2,3.8-0.4,5.6c-0.1,1-0.7,1.7-1.7,1.9c-0.4,0.1-0.8,0.1-1.2,0.1c-12.6,0-25.1,0-37.7,0c-2.2,0-2.7-0.5-2.8-2.6
		c-0.6-9-1.2-18-1.8-27c-0.4-6.5-0.9-13-1.3-19.5c0-0.2,0-0.3,0-0.5c-0.1-1.8,0.6-2.5,2.4-2.5C35,29.7,42.5,29.7,49.9,29.7z"/>
	<path class="st3" d="M49.9,24.9c-4.3,0-8.6,0-12.9,0c-1.6,0-2.9-1-3.3-2.4c-0.4-1.5,0.3-3,1.6-3.8c0.6-0.3,1.2-0.4,1.8-0.4
		c8.5,0,17.1,0,25.6,0c2.1,0,3.5,1.4,3.5,3.3c0,1.9-1.4,3.3-3.5,3.3C58.5,24.9,54.2,24.9,49.9,24.9z"/>
	<path class="st4" d="M65.2,55.8c0,5,0,10.1,0,15.1c0,1.6-0.8,2.6-2.2,2.6c-1.1,0-1.9-0.6-2.2-1.7c-0.1-0.4-0.1-0.8-0.1-1.3
		c0-9.9,0-19.8,0-29.6c0-1.9,0.8-3,2.2-3c1.4,0,2.2,1.1,2.2,2.9C65.2,45.8,65.2,50.8,65.2,55.8z"/>
	<path class="st4" d="M34.8,55.7c0-4.9,0-9.9,0-14.8c0-0.4,0-0.7,0.1-1.1c0.2-1.1,1.1-1.9,2.2-1.9c1.1,0,2,0.8,2.2,1.9
		c0.1,0.3,0.1,0.6,0.1,1c0,10,0,20,0,29.9c0,1.7-0.7,2.7-2.1,2.8c-1.4,0.1-2.4-0.9-2.4-2.6c0-4.8,0-9.6,0-14.3
		C34.8,56.3,34.8,56,34.8,55.7z"/>
	<path class="st0" d="M47.8,55.8c0-5.2,0-10.3,0-15.5c0-1.8,1.7-2.9,3.2-2c0.8,0.4,1.1,1.1,1.1,2c0,1.8,0,3.6,0,5.4
		c0,8.5,0,16.9,0,25.4c0,1.5-0.8,2.4-2,2.5c-1.4,0.1-2.3-0.8-2.3-2.3c0-4.1,0-8.3,0-12.4C47.8,57.8,47.8,56.8,47.8,55.8z"/>
</g>
</svg>
