<?xml version="1.0" encoding="utf-8"?>
<!-- Generator: Adobe Illustrator 26.5.0, SVG Export Plug-In . SVG Version: 6.00 Build 0)  -->
<svg version="1.1" id="Layer_1" xmlns="http://www.w3.org/2000/svg" xmlns:xlink="http://www.w3.org/1999/xlink" x="0px" y="0px"
	 viewBox="0 0 100 100" style="enable-background:new 0 0 100 100;" xml:space="preserve">
<style type="text/css">
	.st0{fill:#27AAE1;}
	.st1{fill:#DF3F31;}
	.st2{fill:#9F2D24;}
	.st3{fill:#FFFFFF;}
</style>
<g>
	<circle class="st0" cx="50" cy="50" r="50"/>
	<path class="st1" d="M49.4,0c-0.5,0.3-0.9,0.3-1.4,0C48.5,0,48.9,0,49.4,0z"/>
	<path class="st1" d="M51.9,0c-0.5,0.3-0.9,0.3-1.4,0C51,0,51.5,0,51.9,0z"/>
	<path class="st2" d="M0,47.1c0.3,0.2,0.2,0.4,0,0.6C0,47.5,0,47.3,0,47.1z"/>
	<path class="st2" d="M0,52.3c0.2,0.2,0.3,0.4,0,0.6C0,52.7,0,52.5,0,52.3z"/>
</g>
<g>
	<path class="st3" d="M84.7,29.3c-0.4,1.4-1.3,2.4-2.4,3.4c-1.7,1.7-3.5,3.4-5.2,5.2c-0.3,0.3-0.5,0.3-0.8,0
		c-4.1-4.2-8.3-8.3-12.5-12.5c-0.4-0.4-0.3-0.5,0-0.8c1.7-1.7,3.4-3.4,5.1-5.1c2.6-2.5,6.1-2.5,8.6,0c1.6,1.6,3.2,3.3,4.9,4.9
		c1,0.9,1.8,1.9,2.2,3.3C84.7,28.2,84.7,28.8,84.7,29.3z"/>
	<path class="st3" d="M39.9,75.3c-0.2-0.2-0.3-0.3-0.4-0.4c-4.2-4.2-8.4-8.5-12.7-12.7c-0.4-0.4-0.1-0.5,0.1-0.7
		c8.2-8.2,16.4-16.4,24.6-24.6c2.7-2.7,5.4-5.4,8.1-8.1c0.3-0.3,0.5-0.4,0.8,0c4.1,4.2,8.3,8.3,12.4,12.4c0.4,0.4,0.3,0.5,0,0.9
		C62,53,51.1,63.9,40.3,74.8C40.1,74.9,40,75.1,39.9,75.3z"/>
	<path class="st3" d="M23,65.6c4.4,4.4,8.8,8.8,13.2,13.2c-1.2,0.3-2.4,0.6-3.6,0.9c-3.6,0.9-7.3,1.8-10.9,2.6
		c-1.2,0.3-2.2-0.6-1.9-1.9c0.9-4.2,1.9-8.4,2.8-12.7C22.7,67.1,22.8,66.3,23,65.6z"/>
</g>
</svg>
